<mxfile host="app.diagrams.net" modified="2024-06-21T09:35:06.934Z" agent="Mozilla/5.0 (Windows NT 10.0; Win64; x64) AppleWebKit/537.36 (KHTML, like Gecko) Chrome/122.0.0.0 Safari/537.36 Edg/122.0.0.0" version="24.5.5" etag="YB-xOp5WXGpD_NTx2s46" type="github">
  <diagram name="페이지-1" id="PXz0D6kQpHm6DOAatJ7x">
    <mxGraphModel>
      <root>
        <mxCell id="0" />
        <mxCell id="1" parent="0" />
      </root>
    </mxGraphModel>
  </diagram>
</mxfile>
